<?xml version="1.0" encoding="UTF-8"?>
<svg xmlns="http://www.w3.org/2000/svg" xmlns:xlink="http://www.w3.org/1999/xlink" width="1360.63pt" height="1360.63pt" viewBox="0 0 1360.63 1360.63">
<path fill-rule="nonzero" fill="rgb(64.299011%, 47.799683%, 23.899841%)" fill-opacity="1" d="M 819.167969 782.539062 C 818.679688 781.867188 815.097656 776.34375 814.554688 776.71875 C 813.769531 778.839844 811.921875 781.089844 810.429688 782.769531 C 804.179688 789.816406 795.722656 797.480469 788.71875 803.929688 C 769.226562 821.875 748.378906 838.371094 728.253906 855.585938 C 741.710938 864.136719 757.242188 869.15625 772.761719 872.628906 C 791.863281 876.902344 811.945312 879.089844 831.53125 878.886719 C 842.425781 846.726562 839.242188 810.183594 819.167969 782.539062 M 525.980469 880.570312 C 549.277344 878.296875 573.0625 875.570312 595.777344 869.882812 C 607.019531 867.070312 619.351562 863.542969 628.742188 856.683594 C 597.15625 832.839844 566.660156 806.925781 542.175781 775.628906 C 537.296875 781.398438 533.816406 788.832031 531.046875 795.816406 C 522.691406 816.882812 519.339844 840.085938 522.183594 862.660156 C 522.953125 868.761719 524.929688 874.542969 525.980469 880.570312 M 677.949219 638.394531 C 653.515625 654.808594 629.246094 672.101562 607.308594 691.792969 C 593.761719 703.953125 579.59375 717.828125 571.230469 734.117188 C 578.253906 742.648438 586.378906 750.375 594.136719 758.289062 C 607.125 771.542969 620.355469 784.9375 634.242188 797.335938 C 647.375 809.058594 661.425781 820.773438 676.847656 829.300781 C 700.980469 813.304688 724.6875 796.207031 746.390625 777 C 754.410156 769.902344 763.246094 761.660156 770.304688 753.640625 C 772.226562 751.457031 785.035156 734.976562 784.800781 733.652344 C 753.71875 697.410156 718.996094 663.304688 677.949219 638.394531 M 884.90625 865.203125 C 921.871094 848.667969 952.949219 819.871094 964.453125 780.132812 C 971.683594 755.144531 973.953125 722.019531 967.324219 696.78125 C 957.039062 657.636719 928.828125 625.230469 893.632812 606.128906 C 891.839844 605.15625 886.75 602.191406 885.179688 601.933594 C 884.324219 601.789062 884.292969 601.824219 884.457031 602.652344 C 884.914062 604.980469 885.390625 608.636719 885.476562 610.984375 C 886.949219 652.082031 877.292969 690.335938 855.449219 725.007812 C 853.222656 728.539062 850.625 731.800781 848.253906 735.226562 C 877.585938 771.085938 887.75 819.558594 884.90625 865.203125 M 471.539062 601.941406 C 471.035156 601.453125 461.167969 606.761719 459.832031 607.542969 C 410.589844 636.40625 377.964844 693.859375 385.320312 751.632812 C 390.988281 796.128906 415.726562 835.257812 454.886719 857.398438 C 457.628906 858.949219 468.378906 864.859375 470.71875 865.210938 C 471.621094 865.347656 471.617188 865.246094 471.515625 864.417969 C 471.265625 862.421875 470.535156 860.398438 470.421875 858.355469 C 469.683594 845.132812 471.171875 830.871094 473.363281 817.835938 C 478.371094 788.058594 490.816406 759.902344 507.746094 735.125 C 490.085938 711.582031 478.191406 683.410156 473.363281 654.253906 C 470.535156 637.167969 469.128906 619.117188 471.539062 601.941406 M 628.746094 612.394531 C 628.386719 611.960938 620.023438 607.964844 618.679688 607.339844 C 590.59375 594.300781 557.4375 589.089844 526.585938 589.375 C 512.441406 623.4375 524.878906 661.332031 540.261719 692.625 C 556.621094 673.785156 575.703125 657.417969 594.664062 641.230469 C 605.71875 631.792969 617.140625 622.71875 628.402344 613.527344 C 628.960938 613.582031 628.832031 612.492188 628.746094 612.394531 M 830.363281 589.972656 C 819.882812 587.945312 808.953125 589.390625 798.488281 591.109375 C 774.339844 595.070312 750.492188 603.828125 727.46875 611.796875 L 727.148438 612.921875 C 741.5625 622.101562 755.152344 633.085938 767.828125 644.527344 C 783.558594 658.722656 797.882812 674.167969 812.332031 689.617188 C 812.808594 690.125 814.417969 692.003906 815.085938 691.523438 C 836.601562 662.320312 840.597656 624.378906 830.363281 589.972656 M 693.066406 496.957031 L 701.492188 491.375 L 709.003906 487.625 C 693.082031 487.960938 674.453125 489.734375 660.261719 497.417969 C 658.558594 498.335938 655.992188 500.839844 654.855469 501.355469 C 654.617188 501.464844 653.953125 501.496094 654.039062 501.089844 L 660.085938 493.945312 L 669.976562 485.976562 C 630.011719 485.734375 586.9375 498.714844 558.378906 527.449219 C 555.160156 530.6875 551.269531 534.957031 548.777344 538.738281 C 548.457031 539.222656 547.433594 539.535156 548.488281 540.117188 C 549.371094 540.601562 558.199219 540.699219 560.308594 540.9375 C 601.515625 545.597656 641.835938 559.648438 676.296875 582.511719 C 754.65625 542.0625 853.777344 531.605469 933.09375 575.464844 C 962.277344 591.601562 989.882812 620.222656 1005.929688 649.386719 C 1035.238281 702.65625 1031.113281 765.183594 1004.65625 818.683594 C 978.738281 871.09375 927.902344 904.257812 873.375 921.550781 C 851.253906 978.875 809.539062 1028.914062 750.917969 1050.835938 C 695.007812 1071.742188 628.648438 1059.53125 592.574219 1009.925781 C 584.25 998.480469 578.394531 987.566406 568.570312 976.769531 C 553.851562 960.59375 535.015625 943.792969 512.222656 941.878906 C 521.503906 938.292969 532.984375 940.148438 542.457031 942.417969 C 571.421875 949.355469 595.144531 987.265625 618.046875 1005.894531 C 648.511719 1030.671875 685.914062 1026.535156 720.832031 1014.160156 C 762.457031 999.410156 799.019531 970.113281 815.644531 928.414062 C 767.269531 927.078125 719.964844 911.589844 678.785156 886.859375 L 677.667969 886.867188 C 647.902344 902.214844 616.117188 914.335938 583.128906 920.71875 C 582.8125 921.988281 583.378906 921.621094 583.824219 921.972656 C 586.585938 924.140625 589.84375 925.710938 592.480469 928.128906 C 610.402344 944.53125 616.089844 972.273438 614.484375 995.761719 C 614.441406 996.398438 614.269531 998.644531 613.582031 998.792969 C 610.90625 999.375 610.035156 994.996094 608.867188 993.085938 C 591.894531 965.242188 553.4375 926.210938 517.289062 937.050781 C 515.105469 937.703125 509.550781 939.316406 510.425781 941.976562 C 512.542969 948.398438 532.503906 956.28125 538.769531 959.847656 C 555.320312 969.273438 566.296875 982.582031 576.980469 998.035156 C 584.796875 1009.347656 594.832031 1023.695312 596.3125 1037.515625 C 596.5 1039.253906 596.90625 1051.476562 596.3125 1052.0625 C 596.21875 1052.15625 594.003906 1052.1875 593.660156 1051.980469 C 593.238281 1051.726562 589.972656 1044.886719 588.855469 1043.324219 C 562.734375 1006.855469 519.585938 1010.488281 480.769531 999.703125 C 466.207031 995.65625 449.171875 989.730469 436.738281 981.070312 C 435.300781 980.070312 426.308594 973.636719 428.117188 971.832031 C 433.5625 972.332031 438.796875 974.980469 444.261719 976.296875 C 457.9375 979.597656 490.171875 983.664062 501.742188 975.367188 C 506.382812 972.035156 509.058594 964.789062 503.378906 961.160156 C 493.269531 954.703125 469.0625 952.988281 456.601562 950.222656 C 434.820312 945.390625 414.007812 933.949219 417.726562 907.851562 C 418.792969 900.375 423.421875 908.230469 425.660156 910.257812 C 447.695312 930.210938 472.722656 928.855469 500.421875 928.433594 C 517.644531 928.167969 540.59375 926.476562 557.320312 929.753906 C 561.15625 930.507812 580.472656 937.445312 581.710938 937.148438 C 583.984375 936.601562 581.773438 929.980469 581.195312 928.417969 C 580.652344 926.953125 578.699219 922.570312 577.339844 922.339844 C 570.15625 923.25 563.050781 924.769531 555.851562 925.59375 C 442.535156 938.554688 356.292969 869.6875 336.582031 759.140625 C 329.355469 718.601562 337.632812 675.8125 357.664062 640.042969 C 385.089844 591.074219 432.902344 561.285156 486.125 546.441406 C 515.648438 501.070312 559.640625 464.140625 611.839844 447.902344 C 674.746094 428.332031 742.597656 441.421875 800.242188 470.308594 C 786.164062 476.652344 773.324219 485.125 760.90625 494.21875 C 738.421875 490.386719 714.925781 489.707031 693.066406 496.957031 "/>
<path fill-rule="nonzero" fill="rgb(64.299011%, 47.799683%, 23.899841%)" fill-opacity="1" d="M 587.207031 314.261719 C 601.40625 333.585938 623.636719 350.589844 647.328125 356.101562 C 668.835938 361.109375 689.203125 352.03125 711.472656 354.621094 C 725.433594 356.246094 748.386719 365.777344 760.292969 373.40625 C 766.75 377.546875 773.109375 385.960938 779.972656 391.105469 C 795.871094 403.027344 814.394531 406.21875 833.96875 406.917969 C 841.5 414.917969 850.625 425.871094 847.363281 437.71875 C 843.804688 450.636719 824.164062 457.351562 812.347656 459.585938 C 817.136719 453.875 816.214844 451.003906 811.527344 445.84375 C 796.921875 429.773438 765.226562 420.71875 744.285156 416.894531 C 714.742188 411.496094 680.871094 411.027344 651.019531 414.527344 C 604.929688 419.933594 564.839844 446.714844 530.914062 476.628906 C 535.007812 465.183594 542.945312 454.90625 550.964844 445.84375 C 563.996094 431.117188 579.914062 417.753906 596.699219 407.484375 C 599.742188 405.621094 603.015625 403.996094 606.210938 402.421875 C 606.050781 401.453125 603.34375 401.808594 602.621094 401.859375 C 597.308594 402.210938 590.988281 403.890625 585.878906 405.457031 C 578.398438 407.746094 571.492188 411.234375 564.441406 414.515625 C 576.300781 400.199219 592.640625 389.703125 609.503906 381.820312 C 604.105469 376.113281 599.386719 368.515625 595.675781 361.578125 C 585.320312 342.210938 578.691406 321.808594 577.636719 299.65625 Z M 587.207031 314.261719 "/>
<path fill-rule="nonzero" fill="rgb(50.999451%, 36.099243%, 18.399048%)" fill-opacity="1" d="M 456.863281 556.394531 C 445.816406 593.996094 445.109375 612.515625 445.15625 617.359375 C 449.855469 613.804688 454.753906 610.519531 459.832031 607.542969 C 461.164062 606.761719 470.957031 601.496094 471.53125 601.941406 C 474.8125 575.59375 483.132812 553.878906 486.523438 545.84375 C 486.390625 546.042969 486.253906 546.242188 486.125 546.445312 C 476.148438 549.226562 466.359375 552.53125 456.863281 556.394531 "/>
<path fill-rule="nonzero" fill="rgb(50.999451%, 36.099243%, 18.399048%)" fill-opacity="1" d="M 531.046875 795.816406 C 533.816406 788.832031 537.300781 781.398438 542.175781 775.628906 C 540.367188 773.214844 515.007812 743.628906 507.730469 735.148438 C 502.65625 742.574219 497.988281 750.3125 493.800781 758.300781 C 503.394531 772.886719 522.070312 792.765625 529.351562 800.332031 C 529.890625 798.820312 530.453125 797.308594 531.046875 795.816406 "/>
<path fill-rule="nonzero" fill="rgb(50.999451%, 36.099243%, 18.399048%)" fill-opacity="1" d="M 676.378906 639.453125 C 676.394531 639.445312 676.40625 639.433594 676.421875 639.425781 C 676.394531 639.441406 676.378906 639.453125 676.378906 639.453125 "/>
<path fill-rule="nonzero" fill="rgb(50.999451%, 36.099243%, 18.399048%)" fill-opacity="1" d="M 700.5 653.414062 C 712.84375 644.066406 738.433594 629.546875 745.316406 625.6875 C 739.417969 621.167969 733.359375 616.878906 727.148438 612.921875 C 716.839844 615.191406 685.574219 633.878906 678.03125 638.445312 C 685.738281 643.125 693.222656 648.132812 700.5 653.414062 "/>
<path fill-rule="nonzero" fill="rgb(50.999451%, 36.099243%, 18.399048%)" fill-opacity="1" d="M 885.476562 610.984375 C 885.390625 608.636719 884.914062 604.980469 884.457031 602.652344 C 884.382812 602.285156 884.355469 602.082031 884.414062 601.972656 C 870.941406 594.265625 841.382812 590.957031 830.261719 589.953125 C 830.296875 589.960938 830.328125 589.964844 830.363281 589.96875 C 832.8125 598.214844 834.441406 606.660156 835.210938 615.144531 C 863.660156 618.785156 878.933594 624.726562 885.4375 627.894531 C 885.664062 622.3125 885.679688 616.679688 885.476562 610.984375 "/>
<path fill-rule="nonzero" fill="rgb(50.999451%, 36.099243%, 18.399048%)" fill-opacity="1" d="M 810.429688 782.769531 C 811.921875 781.089844 813.769531 778.839844 814.550781 776.714844 C 809.570312 764.292969 789.589844 739.542969 784.796875 733.699219 C 784.808594 735.109375 774.582031 748.410156 771.164062 752.609375 C 791.765625 771.710938 797.015625 786.855469 798.140625 795.203125 C 802.503906 791.085938 806.832031 786.828125 810.429688 782.769531 "/>
<path fill-rule="nonzero" fill="rgb(50.999451%, 36.099243%, 18.399048%)" fill-opacity="1" d="M 783.851562 732.554688 C 783.789062 732.480469 783.753906 732.4375 783.753906 732.4375 C 783.785156 732.476562 783.820312 732.515625 783.851562 732.554688 "/>
<path fill-rule="nonzero" fill="rgb(50.999451%, 36.099243%, 18.399048%)" fill-opacity="1" d="M 628.742188 856.683594 C 623.1875 860.742188 616.597656 863.628906 609.820312 865.894531 C 622.359375 876.332031 644.179688 892.855469 652.238281 898.917969 C 660.859375 895.1875 669.34375 891.160156 677.667969 886.867188 L 678.785156 886.859375 C 671.574219 882.832031 635.363281 860.679688 628.320312 856.363281 C 628.460938 856.472656 628.601562 856.578125 628.742188 856.683594 "/>
<path fill-rule="nonzero" fill="rgb(50.999451%, 36.099243%, 18.399048%)" fill-opacity="1" d="M 873.339844 921.640625 C 854.203125 926.527344 820.574219 928.332031 815.574219 928.578125 C 812.785156 935.546875 809.429688 942.164062 805.59375 948.425781 C 838.175781 949.347656 855.1875 946.960938 862.863281 945.289062 C 866.738281 937.589844 870.230469 929.6875 873.339844 921.640625 "/>
</svg>
